<?xml version="1.0" encoding="UTF-8"?>
<svg width="417px" height="159px" viewBox="0 0 417 159" version="1.1" xmlns="http://www.w3.org/2000/svg" xmlns:xlink="http://www.w3.org/1999/xlink">
    <!-- Generator: Sketch 52.5 (67469) - http://www.bohemiancoding.com/sketch -->
    <title>Frankie - Black Logo - White fon</title>
    <desc>Created with Sketch.</desc>
    <g id="Frankie---Black-Logo---White-fon" stroke="none" stroke-width="1" fill="none" fill-rule="evenodd">
        <rect fill="#FFFFFF" x="0" y="0" width="417" height="159"></rect>
        <path d="M58,85.2677763 L58,109 L43,109 L43,37 L58,37 L88,37 L88,51 L58,51 L58,69.1179314 C59.1658596,68.4307691 60.540416,67.6644869 62.1236694,66.8190848 C65.3822785,65.0791011 70.6633347,64.4857735 77.9668377,65.0391021 L77.9668377,79.026848 C69.4914242,78.88804 64.2103681,79.7256759 62.1236694,81.5397556 C60.8554411,82.6422948 59.4808846,83.8849684 58,85.2677763 Z" id="Combined-Shape" fill="#000000" fill-rule="nonzero"></path>
        <path d="M103,64.3913141 C104.141385,62.6530207 105.387969,61.4285721 106.739753,60.7179683 C108.894621,59.5851999 111.98137,59.0124897 116,58.9998376 L116,73 C113.369541,72.8180626 110.67058,73.5826609 107.903117,75.2937948 C106.047485,76.4411397 104.413113,78.4710045 103,81.3833891 L103,109 L89,109 L89,59 L103,59 L103,64.3913141 Z" id="Combined-Shape" fill="#000000" fill-rule="nonzero"></path>
        <path d="M159,105.478989 C154.883182,108.329788 149.88664,110 144.5,110 C130.416739,110 119,98.5832611 119,84.5 C119,70.4167389 130.416739,59 144.5,59 C149.88664,59 154.883182,60.6702119 159,63.5210112 L159,59 L173,59 L173,109 L159,109 L159,105.478989 Z M146.5,98 C153.955844,98 160,91.9558441 160,84.5 C160,77.0441559 153.955844,71 146.5,71 C139.044156,71 133,77.0441559 133,84.5 C133,91.9558441 139.044156,98 146.5,98 Z" id="Combined-Shape" fill="#000000" fill-rule="nonzero"></path>
        <path d="M194,64.1529791 C197.811551,60.3559397 203.123935,58 209,58 C220.081213,58 229.157795,66.3784875 229.94464,77 L230,77 L230,109 L216,109 L216,78.4268495 C215.135293,73.6822579 210.461519,70 205,70 C199.547841,70 194.899012,74.1336833 194.018969,78.5 C194.01264,78.5 194.006318,78.5 194,78.5 L194,109 L180,109 L180,59 L194,59 L194,64.1529791 Z" id="Combined-Shape" fill="#000000" fill-rule="nonzero"></path>
        <path d="M250,79.1530086 L268.988188,58.9963226 L287.007767,58.9963226 L265.919339,80.7034786 L287.007767,109.010137 L286.142926,109.010137 L270.04915,109.010137 L256.62318,90.042865 L255.610573,90.042865 L250,96.2077774 L250,109 L236,109 L236,37 L250,37 L250,79.1530086 Z" id="Combined-Shape" fill="#000000" fill-rule="nonzero"></path>
        <path d="M297.5,52 C292.80558,52 289,48.1944204 289,43.5 C289,38.8055796 292.80558,35 297.5,35 C302.19442,35 306,38.8055796 306,43.5 C306,48.1944204 302.19442,52 297.5,52 Z M291,59 L305,59 L305,109 L291,109 L291,59 Z" id="Combined-Shape" fill="#000000" fill-rule="nonzero"></path>
        <circle id="dot" fill="#000000" fill-rule="nonzero" cx="376" cy="100" r="9"></circle>
        <path d="M311.085993,77.1914693 C315.673278,64.4827413 323.966348,58.1283772 335.965203,58.1283772 C347.964057,58.1283772 355.975656,64.7672461 360,78.0449839 C360.153727,79.4556957 360.230591,80.9454545 360.230591,82.5142602 C360.230591,84.0830659 360.153727,85.5793373 360,87.0030743 L325.195965,90.8787628 C328.788045,94.8586324 332.712483,96.9496554 336.96928,97.1518318 C341.226077,97.3540081 345.575421,95.6559481 350.017312,92.0576515 L357.78076,101.391618 C352.256071,107.051442 344.984219,109.881354 335.965203,109.881354 C330.272184,109.881354 323.893918,107.569564 318.550843,102.89791 C314.819734,99.6356594 312.184234,95.1248051 310.644345,89.3653473 C310.47762,87.1621071 310.394257,85.0399714 310.394257,82.9989401 C310.394257,80.9579088 310.624836,79.0220852 311.085993,77.1914693 Z M324.059998,81.0245565 L346.357257,77.9339707 L346.357257,76.9186573 C344.288314,72.0718449 340.588733,69.6484387 335.258512,69.6484387 C329.928292,69.6484387 326.152363,72.7523904 323.930724,78.9602937 L324.059998,81.0245565 Z" id="Combined-Shape" fill="#000000" fill-rule="nonzero"></path>
    </g>
</svg>